<svg width="16" height="44" viewBox="0 0 16 44" fill="none" xmlns="http://www.w3.org/2000/svg">
<g id="SVG">
<path id="Vector" d="M14.798 27.2022L10.928 23.3322C11.629 22.4032 12.05 21.2512 12.05 20.0002C12.05 16.9402 9.56095 14.4502 6.49995 14.4502C3.43995 14.4502 0.949951 16.9402 0.949951 20.0002C0.949951 23.0612 3.43995 25.5502 6.49995 25.5502C7.75095 25.5502 8.90295 25.1292 9.83195 24.4282L13.702 28.2982C13.853 28.4492 14.052 28.5262 14.25 28.5262C14.448 28.5262 14.646 28.4502 14.798 28.2982C15.101 27.9952 15.101 27.5052 14.798 27.2022ZM2.04995 20.0002C2.04995 17.5462 4.04695 15.5502 6.49995 15.5502C8.95395 15.5502 10.95 17.5472 10.95 20.0002C10.95 22.4532 8.95395 24.4502 6.49995 24.4502C4.04595 24.4502 2.04995 22.4542 2.04995 20.0002Z" fill="black" fill-opacity="0.8"/>
</g>
</svg>
